<?xml version="1.0" encoding="UTF-8"?>
<svg width="24px" height="24px" viewBox="0 0 24 24" version="1.1" xmlns="http://www.w3.org/2000/svg">
    <g stroke="none" stroke-width="1" fill="none" fill-rule="evenodd">
        <path d="M24,12 C24,5.4 18.6,0 12,0 C5.4,0 0,5.4 0,12 C0,18.6 5.4,24 12,24 C18.6,24 24,18.6 24,12 Z" fill="#FF4500"/>
        <path d="M14.8363636,10.4 C14.3818182,10.4 14,10.7818182 14,11.2363636 C14,11.6909091 14.3818182,12.0727273 14.8363636,12.0727273 C15.2909091,12.0727273 15.6727273,11.6909091 15.6727273,11.2363636 C15.6727273,10.7818182 15.2909091,10.4 14.8363636,10.4 Z" fill="#FFFFFF"/>
        <path d="M9.16363636,10.4 C8.70909091,10.4 8.32727273,10.7818182 8.32727273,11.2363636 C8.32727273,11.6909091 8.70909091,12.0727273 9.16363636,12.0727273 C9.61818182,12.0727273 10,11.6909091 10,11.2363636 C10,10.7818182 9.61818182,10.4 9.16363636,10.4 Z" fill="#FFFFFF"/>
        <path d="M12.1636364,15.8909091 C11.0909091,15.8909091 10.4181818,15.2181818 10.3272727,15.1272727 C10.1818182,14.9818182 10.1818182,14.7454545 10.3272727,14.6 C10.4727273,14.4545455 10.7090909,14.4545455 10.8545455,14.6 C10.8727273,14.6181818 11.3636364,15.1090909 12.1636364,15.1090909 C12.9636364,15.1090909 13.4727273,14.6 13.4727273,14.6 C13.6181818,14.4545455 13.8545455,14.4545455 14,14.6 C14.1454545,14.7454545 14.1454545,14.9818182 14,15.1272727 C13.9090909,15.2181818 13.2363636,15.8909091 12.1636364,15.8909091 Z" fill="#FFFFFF"/>
        <path d="M17.3090909,8.32727273 C16.9090909,8.32727273 16.5636364,8.52727273 16.3272727,8.85454545 C15.5272727,8.30909091 14.4545455,7.96363636 13.2909091,7.92727273 L14.1636364,5.01818182 L16.7636364,5.56363636 C16.7636364,5.56363636 16.7636364,5.56363636 16.7636364,5.58181818 C16.7636364,6.21818182 17.2727273,6.72727273 17.9090909,6.72727273 C18.5454545,6.72727273 19.0545455,6.21818182 19.0545455,5.58181818 C19.0545455,4.94545455 18.5454545,4.43636364 17.9090909,4.43636364 C17.4545455,4.43636364 17.0727273,4.67272727 16.8727273,5.05454545 L13.9636364,4.43636364 C13.8,4.41818182 13.6363636,4.50909091 13.6,4.67272727 L12.6,8.03636364 C11.3818182,8.07272727 10.2545455,8.41818182 9.43636364,8.98181818 C9.2,8.65454545 8.85454545,8.45454545 8.45454545,8.45454545 C7.63636364,8.45454545 6.98181818,9.12727273 6.98181818,9.92727273 C6.98181818,10.5454545 7.36363636,11.0727273 7.89090909,11.2363636 C7.87272727,11.3454545 7.85454545,11.4727273 7.85454545,11.6 C7.85454545,14.0363636 9.8,15.9818182 12.2545455,15.9818182 C14.7090909,15.9818182 16.6545455,14.0363636 16.6545455,11.6 C16.6545455,11.4727273 16.6363636,11.3454545 16.6181818,11.2363636 C17.1454545,11.0727273 17.5272727,10.5636364 17.5272727,9.92727273 C17.5272727,9.10909091 16.8909091,8.45454545 16.0909091,8.45454545 M17.9090909,5.21818182 C18.1636364,5.21818182 18.3636364,5.41818182 18.3636364,5.67272727 C18.3636364,5.92727273 18.1636364,6.12727273 17.9090909,6.12727273 C17.6545455,6.12727273 17.4545455,5.92727273 17.4545455,5.67272727 C17.4545455,5.41818182 17.6545455,5.21818182 17.9090909,5.21818182 Z M7.67272727,9.94545455 C7.67272727,9.56363636 8,9.23636364 8.4,9.23636364 C8.54545455,9.23636364 8.67272727,9.27272727 8.78181818,9.36363636 C8.16363636,9.8 7.72727273,10.3636364 7.52727273,11 C7.56363636,11 7.56363636,11 7.56363636,11 C7.65454545,11 7.67272727,9.94545455 7.67272727,9.94545455 Z M12.2545455,15.2 C10.3818182,15.2 8.8,13.6363636 8.8,11.7818182 C8.8,11.7636364 8.8,11.7454545 8.8,11.7272727 C8.8,11.7090909 8.8,11.6909091 8.8,11.6727273 C8.8,11.6545455 8.8,11.6363636 8.8,11.6181818 C8.8,11.6 8.8,11.5818182 8.8,11.5636364 C8.8,9.7 10.3636364,8.14545455 12.2363636,8.14545455 C14.1090909,8.14545455 15.6727273,9.70909091 15.6727273,11.5454545 C15.6727273,11.5636364 15.6727273,11.5818182 15.6727273,11.6 C15.6727273,11.6181818 15.6727273,11.6363636 15.6727273,11.6545455 C15.6727273,11.6727273 15.6727273,11.6909091 15.6727273,11.7090909 C15.6727273,11.7272727 15.6727273,11.7454545 15.6727273,11.7636364 C15.7272727,13.6 14.1090909,15.2 12.2545455,15.2 Z M16.0909091,11 C15.8909091,10.3636364 15.4545455,9.78181818 14.8363636,9.36363636 C14.9454545,9.27272727 15.0727273,9.21818182 15.2181818,9.21818182 C15.6,9.21818182 15.9272727,9.54545455 15.9272727,9.94545455 C15.9272727,10.3272727 15.6363636,10.6363636 15.2727273,10.6727273 C15.2727273,10.6727273 15.2727273,10.6727273 15.2727273,10.6727273 C15.2545455,10.7818182 15.2,10.9090909 16.0909091,11 Z" fill="#FFFFFF"/>
    </g>
</svg>